<svg width="1472" height="974" viewBox="0 0 1472 974" fill="none" xmlns="http://www.w3.org/2000/svg">
<g clip-path="url(#clip0)">
<path d="M84.0131 439.797C93.1276 425.474 107.776 396.503 127.958 352.883C140.979 325.539 150.094 311.216 155.302 309.914C167.021 300.148 178.74 290.057 190.458 279.641L212.919 254.25L245.146 226.906L288.115 185.891L312.529 171.242L334.99 154.641L356.474 145.852L384.794 124.367L436.552 105.812C468.453 94.7448 488.31 88.5599 496.122 87.2578C511.747 85.3047 525.419 83.3516 537.138 81.3984C550.159 94.4193 559.599 101.255 565.458 101.906C566.109 101.906 582.385 97.349 614.286 88.2344C616.891 87.5833 619.169 87.2578 621.122 87.2578C621.773 87.2578 636.096 90.8385 664.091 98C667.346 98.651 672.88 99.3021 680.693 99.9531C692.411 100.604 700.875 101.581 706.083 102.883C736.682 93.7682 753.609 89.2109 756.865 89.2109C769.885 89.2109 781.93 93.4427 792.997 101.906C789.742 118.182 785.185 128.924 779.326 134.133C773.466 139.992 762.724 145.201 747.099 149.758L741.24 176.125C720.406 185.891 706.734 193.703 700.224 199.562C691.76 205.422 685.901 208.677 682.646 209.328C682.646 209.328 677.763 208.677 667.997 207.375C666.044 207.375 664.742 207.375 664.091 207.375L628.935 209.328H627.958L599.638 205.422L576.201 203.469C554.065 196.307 535.51 192.076 520.536 190.773C515.979 190.773 508.818 190.448 499.052 189.797C487.333 188.495 477.568 187.844 469.755 187.844C464.547 187.844 440.458 191.75 397.49 199.562C374.703 202.167 359.729 205.096 352.568 208.352C345.406 212.909 331.409 225.604 310.576 246.438C305.367 252.297 293.974 256.529 276.396 259.133C274.443 274.107 270.862 283.872 265.654 288.43C259.143 293.638 247.425 297.544 230.497 300.148C231.8 307.31 232.451 313.82 232.451 319.68C232.451 322.284 223.661 336.281 206.083 361.672C200.875 369.484 198.271 409.198 198.271 480.812C198.271 496.438 206.409 525.409 222.685 567.727C212.268 585.956 206.734 599.302 206.083 607.766C209.99 611.021 221.057 614.927 239.286 619.484C267.932 655.943 286.161 682.635 293.974 699.562L317.411 702.492C327.177 715.513 333.688 723.326 336.943 725.93L374.052 750.344L400.419 769.875C425.159 779.641 440.458 785.174 446.318 786.477C450.224 787.779 465.198 789.081 491.24 790.383L527.372 798.195L561.552 800.148L586.943 803.078C599.964 801.776 621.448 794.289 651.396 780.617L668.974 785.5C677.438 780.292 682.971 776.711 685.576 774.758C690.784 772.154 703.154 763.365 722.685 748.391C739.612 746.438 754.586 739.602 767.607 727.883C777.372 717.466 788.44 708.677 800.81 701.516C806.018 698.26 811.552 693.378 817.411 686.867C833.036 668.638 844.43 659.523 851.591 659.523C856.8 659.523 862.008 662.779 867.216 669.289C860.706 695.982 857.451 718.443 857.451 736.672C844.43 749.042 833.688 762.062 825.224 775.734C810.901 780.292 791.37 791.034 766.63 807.961C756.214 809.914 746.773 813.82 738.31 819.68C725.94 828.143 715.523 832.375 707.06 832.375L673.857 830.422H672.88C638.375 837.583 617.867 842.141 611.357 844.094C609.404 844.745 600.615 850.604 584.99 861.672C581.734 863.625 578.805 864.602 576.201 864.602L477.568 863.625C473.661 863.625 464.221 864.602 449.247 866.555C433.622 856.138 418.974 850.279 405.302 848.977C387.073 847.023 360.706 841.164 326.201 831.398L302.763 828.469L275.419 819.68C257.841 815.773 246.773 813.169 242.216 811.867C238.31 809.914 233.427 806.008 227.568 800.148C193.714 766.945 176.786 747.414 176.786 741.555C176.786 736.346 177.763 730.161 179.716 723C179.065 721.047 178.74 720.07 178.74 720.07L145.536 725.93C145.536 725.93 144.885 725.279 143.583 723.977C131.865 699.888 123.401 684.589 118.193 678.078C107.776 663.104 102.242 651.06 101.591 641.945C100.94 638.039 99.6381 626.32 97.6849 606.789V603.859L102.568 576.516C84.3386 563.495 75.224 554.38 75.224 549.172C75.224 547.219 90.5235 537.453 121.122 519.875C138.05 510.109 146.513 495.461 146.513 475.93C146.513 457.049 125.68 445.005 84.0131 439.797Z" fill="#00716A"/>
<path d="M1036.61 793.621C1037.13 795.053 1037.39 795.965 1037.39 796.355C1037.39 796.941 1036.78 797.723 1035.54 798.699C1034.37 799.611 1033 800.717 1031.44 802.02L1029.19 801.238L1026.55 805.242C1024.41 805.372 1022.36 805.958 1020.4 807L1014.64 805.633L1011.42 807L1010.44 808.758C1008.55 807.326 1007.35 806.609 1006.83 806.609C1006.57 806.609 1006.44 806.805 1006.44 807.195L1005.36 807L1003.61 808.758L1001.85 806.609L1000.38 807.195C999.276 806.284 998.202 805.828 997.16 805.828H990.812L988.957 803.777L986.809 804.168L983.586 802.41L981.633 803.387L980.168 801.043H977.238L975.383 798.797H973.039C972.844 798.797 972.421 798.309 971.77 797.332C971.184 796.355 970.272 795.509 969.035 794.793L962.98 791.57C959.465 789.878 956.73 786.948 954.777 782.781H952.434L949.211 778.777L943.352 774.188L936.809 766.57L934.953 765.984L931.926 762.762C931.6 762.371 930.233 761.785 927.824 761.004C926.913 761.525 926.099 761.785 925.383 761.785C924.797 761.785 924.146 761.525 923.43 761.004V761.199C923.43 761.329 923.299 761.395 923.039 761.395H920.988L919.035 758.562C919.751 757.781 920.207 756.447 920.402 754.559L922.844 753.777V752.605L925.383 752.02C926.229 751.368 927.043 751.043 927.824 751.043C928.345 751.043 928.898 751.206 929.484 751.531C930.07 751.857 930.428 752.02 930.559 752.02C930.754 752.02 930.982 751.824 931.242 751.434C931.828 753.842 934.628 755.047 939.641 755.047C944.003 755.047 947.388 754.624 949.797 753.777V753.191L964.836 752.605C968.286 750.848 971.932 749.969 975.773 749.969L977.043 750.359L980.363 749.188L981.242 748.016L983.586 748.211L986.613 747.039H988.762C989.868 747.039 990.552 746.941 990.812 746.746C991.073 746.486 991.203 745.965 991.203 745.184V744.402C992.831 744.207 993.645 743.947 993.645 743.621C998.658 742.319 1001.16 740.105 1001.16 736.98C1001.16 735.483 1000.45 734.018 999.016 732.586L992.375 726.238H990.812C987.753 724.35 985.799 723.406 984.953 723.406H983L978.996 721.648H976.555L974.016 719.598H969.426L967.57 718.816L956.633 718.035L954.777 716.961L953.605 717.645L951.359 716.961L949.211 717.645L943.352 716.961L937.395 718.035L934.172 716.961L930.559 717.352L927.434 716.961L924.992 718.035L923.234 717.352L919.621 719.598L916.789 719.207C915.878 721.16 914.868 722.82 913.762 724.188L915.031 727.02L914.445 738.641L915.812 748.602C914.38 753.224 913.632 756.089 913.566 757.195L912.199 782.781L913.762 797.43L912.59 805.242V807.195C912.59 808.237 911.32 808.758 908.781 808.758H908L908.977 801.043L908 798.016L906.242 789.812L907.414 789.031C905.786 787.013 904.973 785.678 904.973 785.027C904.973 783.79 905.721 782.456 907.219 781.023L905.559 777.801H905.363C905.103 777.801 904.973 777.736 904.973 777.605C904.973 776.889 905.786 775.034 907.414 772.039C906.503 771.062 906.047 769.793 906.047 768.23L906.633 765.008V763.445C907.544 761.753 908 760.353 908 759.246C908 758.009 907.544 756.447 906.633 754.559L908 751.238L907.414 748.211L908.586 747.234C908.195 746.648 908 745.965 908 745.184C908 744.207 908.456 742.612 909.367 740.398L907.414 740.789L906.242 735.418L907.219 731.609L906.242 723.406L907.219 722.43C905.135 720.281 903.54 719.207 902.434 719.207H901.848L900.383 720.574L895.793 720.184L892.766 723.992C891.398 722.885 890.129 722.234 888.957 722.039C887.915 720.672 887.395 719.598 887.395 718.816C887.395 718.165 887.525 717.547 887.785 716.961C888.111 716.31 888.632 715.724 889.348 715.203L891.984 713.445L898.039 712.762L906.242 712.371L908 711.004V710.418C908 708.4 909.53 707.391 912.59 707.391H915.031C915.747 710.19 916.952 711.59 918.645 711.59C919.035 711.59 920.435 711.004 922.844 709.832L927.824 711.004L935.637 709.832L945.988 711.004L960.637 711.395L967.961 712.762H973.625L975.773 714.617C975.969 713.836 976.392 713.445 977.043 713.445C977.564 713.445 978.215 713.836 978.996 714.617C978.996 715.529 979.257 716.31 979.777 716.961L981.828 717.352V714.812L989.836 718.035L992.57 720.184L992.961 719.598C994.133 720.314 995.891 720.77 998.234 720.965L999.602 722.625L1001.36 723.016C1003.51 726.336 1005.14 728.81 1006.24 730.438C1007.41 732.065 1008 733.53 1008 734.832C1008 737.241 1006.96 739.357 1004.88 741.18C1002.86 743.003 1000.64 745.281 998.234 748.016L996.184 748.113L994.621 748.211C994.23 748.211 993.091 748.667 991.203 749.578L990.422 751.238H984.758L983.195 752.605C982.935 752.866 982.316 753.159 981.34 753.484L978.41 754.363C975.025 754.363 972.03 755.763 969.426 758.562L966.203 756.414L963.371 757.781C962.785 757.391 962.264 757.195 961.809 757.195C961.027 757.195 960.018 757.781 958.781 758.953L956.047 757.781L953.41 758.953L952.434 757.781L948.82 759.832L944.035 759.246C943.059 759.246 942.049 759.376 941.008 759.637L942.961 762.371L947.844 766.57L949.211 769.012L957.023 774.969L958.781 778.191L960.051 779.656C960.441 780.047 961.288 781.837 962.59 785.027L967.961 785.223L974.016 791.375L977.238 792.84L981.633 795.574L985.832 796.844L991.789 799.188L994.035 798.797L995.012 799.578L995.402 799.188L996.184 800.555L999.016 799.969L999.602 802.02L1001.85 800.555L1004.19 801.238L1011.03 800.555L1013.76 801.238L1023.43 799.578L1030.56 797.625L1031.05 798.797L1032.41 796.355H1035.44L1036.61 793.621ZM1190.81 810.223C1190.49 810.613 1189.51 811.069 1187.88 811.59L1183.68 808.758L1178.21 802.02L1176.65 798.016C1176.26 795.477 1175.74 793.328 1175.09 791.57C1173.59 789.878 1172.84 786.232 1172.84 780.633C1172.84 779.721 1172.97 779.038 1173.23 778.582C1173.56 778.126 1173.92 775.945 1174.31 772.039L1172.26 767.84L1172.84 765.789L1172.26 761.98L1172.45 757.586L1171.09 756.219L1172.26 753.191L1171.09 751.434L1172.26 749.578L1170.89 745.379V739.031L1169.23 735.223C1169.17 733.53 1169.07 732.065 1168.94 730.828C1168.87 729.591 1167.64 728.191 1165.23 726.629L1162.69 729.754L1160.44 730.828L1153.7 740.203L1147.84 747.234L1145.89 751.434L1140.23 757.781L1132.71 763.445L1132.02 766.766L1128.02 768.23L1127.43 770.965L1122.84 773.211L1121.28 777.02L1118.06 778.191L1113.47 786.395C1111.65 786.395 1110.57 788.055 1110.25 791.375C1109.73 791.505 1109.27 791.57 1108.88 791.57C1108.36 790.398 1107.28 788.673 1105.66 786.395L1106.05 783.758L1104.68 782L1106.05 780.242L1104.78 778.777C1104.45 778.387 1103.93 776.987 1103.21 774.578L1100.48 772.039C1099.96 771.844 1099.24 771.095 1098.33 769.793C1097.49 768.426 1096.83 767.417 1096.38 766.766C1095.92 766.115 1095.34 764.52 1094.62 761.98L1092.47 759.441L1088.66 751.824L1084.66 747.234L1083.29 744.402L1079.48 740.203L1075.48 733.953C1073.2 730.503 1071.41 728.777 1070.11 728.777C1069.2 728.777 1068.32 728.94 1067.47 729.266C1066.69 729.591 1066.24 729.754 1066.11 729.754H1065.81V732.195C1065.81 736.622 1065.23 739.943 1064.05 742.156L1059.86 749.969L1060.83 755.047L1059.46 758.562L1055.46 772.039L1053.9 776.434L1053.21 779.363L1050.68 785.809L1047.45 791.375L1047.84 795.77L1044.43 803.973C1044.43 805.145 1045.04 806.023 1046.28 806.609C1043.68 809.799 1041.95 811.395 1041.11 811.395C1040.78 811.395 1040.26 810.874 1039.54 809.832C1038.83 808.855 1038.47 807.651 1038.47 806.219C1038.47 805.958 1038.73 805.145 1039.25 803.777C1039.77 802.345 1040.23 800.652 1040.62 798.699C1041.01 796.746 1041.56 795.346 1042.28 794.5C1043.06 793.589 1043.45 793.1 1043.45 793.035V788.152C1043.45 785.353 1044.78 783.302 1047.45 782V778.777L1048.62 774.188C1048.49 773.927 1048.43 773.536 1048.43 773.016C1048.43 772.365 1048.79 771.03 1049.5 769.012C1050.42 767.905 1050.87 766.701 1050.87 765.398V761.004L1052.63 757.781L1056.24 745.77L1055.27 740.398L1057.02 739.031L1057.71 736.59L1057.9 727.996C1058.55 724.415 1058.88 721.876 1058.88 720.379C1058.88 718.947 1058 716.473 1056.24 712.957L1057.9 709.637L1057.02 708.172C1057.61 707.911 1057.9 707.326 1057.9 706.414C1059.86 706.414 1061.09 705.958 1061.61 705.047L1063.47 705.242L1065.81 707V708.758L1068.06 710.223L1068.64 714.812L1070.5 716.375L1071.28 719.207H1072.26C1072 719.728 1071.87 720.184 1071.87 720.574C1071.87 721.746 1072.94 722.43 1075.09 722.625C1075.94 723.016 1076.85 723.732 1077.82 724.773L1078.21 727.41L1080.46 729.754L1081.83 734.441L1090.81 744.012L1092.47 749.383L1095.5 751.824L1098.23 759.637L1105.07 771.844C1106.5 774.253 1108.23 776.368 1110.25 778.191L1110.64 775.555H1114.25L1116.5 770.574L1120.7 767.645C1121.41 766.603 1122.62 765.268 1124.31 763.641V761.98C1125.74 761.004 1127.21 760.125 1128.7 759.344C1130.27 758.497 1131.05 757.977 1131.05 757.781C1131.05 757.651 1130.98 757.586 1130.85 757.586C1130.85 756.674 1131.24 755.6 1132.02 754.363H1134.07L1135.83 751.824C1136.29 752.475 1136.65 752.801 1136.91 752.801C1137.04 752.801 1137.1 752.605 1137.1 752.215C1137.1 752.085 1136.94 750.88 1136.61 748.602C1139.54 744.63 1142.15 742.645 1144.43 742.645V740.203C1144.43 738.836 1145.57 737.827 1147.84 737.176L1149.02 737.566L1149.5 736.395L1153.7 729.754L1154.09 728.387H1155.46C1157.41 726.303 1158.88 723.829 1159.86 720.965C1160.7 720.314 1161.71 719.988 1162.88 719.988C1163.34 719.988 1163.66 720.184 1163.86 720.574L1165.23 717.645L1164.45 711.59L1163.27 708.758C1164.71 706.674 1165.65 704.559 1166.11 702.41C1167.54 702.605 1168.58 702.866 1169.23 703.191C1169.56 703.647 1170.43 703.973 1171.87 704.168L1172.26 707.391C1174.47 709.279 1175.61 710.32 1175.68 710.516C1175.81 710.711 1175.87 711.134 1175.87 711.785L1175.68 713.445V718.816L1176.85 720.574L1175.68 721.648L1176.85 722.039L1176.46 724.188L1177.24 725.164L1177.82 729.363L1178.9 730.242L1176.85 732.977L1177.82 733.367L1177.24 737.566L1178.7 741.18L1178.21 745.77L1180.07 752.996C1180.4 754.428 1180.72 756.414 1181.05 758.953C1180.27 760.581 1179.48 761.785 1178.7 762.566L1179.88 765.008C1180.4 765.333 1180.66 765.659 1180.66 765.984C1180.66 766.31 1180.4 766.961 1179.88 767.938C1179.42 768.849 1179.09 769.663 1178.9 770.379L1180.46 771.844L1179.88 782.781L1181.83 789.617V797.625L1183.29 799.188C1184.07 801.141 1184.73 802.475 1185.25 803.191C1185.77 803.908 1186.78 805.079 1188.27 806.707C1189.84 808.27 1190.68 809.441 1190.81 810.223Z" fill="#00716A"/>
<path d="M387.977 439.121L386.805 439.414L385.047 443.955L386.805 444.834L385.926 451.426C385.34 452.305 385.047 453.281 385.047 454.355L385.926 458.311V461.973L384.461 463.438L385.926 465.195L383.729 470.615L384.461 475.742L379.627 485.264L380.799 485.85C380.408 486.826 380.213 488.047 380.213 489.512L380.799 494.053V494.639L377.43 496.104L380.799 503.574H378.748L379.627 506.357L377.43 510.166L380.213 515.293L379.627 517.344H378.162C377.479 517.344 377.137 517.979 377.137 519.248C377.137 521.494 378.357 523.398 380.799 524.961C378.846 525.84 377.771 528.623 377.576 533.311L377.137 536.533L378.748 541.367L377.137 545.029L377.43 556.162L375.965 563.926L379.041 565.391C378.65 567.441 378.162 568.955 377.576 569.932C377.088 570.811 376.844 571.689 376.844 572.568C376.844 574.229 377.869 576.328 379.92 578.867L377.869 579.453L381.678 583.408L380.213 585.752L384.461 587.07C383.875 589.902 382.752 592.295 381.092 594.248C379.334 593.662 378.455 592.344 378.455 590.293L374.5 585.166L372.156 584.58L373.328 579.453L368.494 574.033L370.545 571.396L367.615 566.855L368.494 560.557C368.104 559.482 367.713 558.506 367.322 557.627L366.15 555.137L368.494 551.621L367.322 547.666L368.494 545.029L364.539 541.953L367.615 537.559L367.322 517.344L369.373 501.816L368.494 486.436L369.959 482.334L368.494 481.162L369.373 477.5V472.08L370.545 470.029L368.494 469.443L369.959 462.559C367.713 462.559 366.346 461.826 365.857 460.361H369.959L370.545 455.527L368.494 454.941L369.959 451.426C371.619 450.059 372.449 448.643 372.449 447.178C372.449 445.713 371.814 444.199 370.545 442.637L372.449 442.051V439.414H375.379L377.137 435.166L379.627 434.287C384.412 434.287 387.195 435.898 387.977 439.121ZM656.336 594.834C655.848 595.42 654.383 596.104 651.941 596.885L645.643 592.637L637.439 582.529L635.096 576.523C634.51 572.715 633.729 569.492 632.752 566.855C630.506 564.316 629.383 558.848 629.383 550.449C629.383 549.082 629.578 548.057 629.969 547.373C630.457 546.689 630.994 543.418 631.58 537.559L628.504 531.26L629.383 528.184L628.504 522.471L628.797 515.879L626.746 513.828L628.504 509.287L626.746 506.65L628.504 503.867L626.453 497.568V488.047L623.963 482.334C623.865 479.795 623.719 477.598 623.523 475.742C623.426 473.887 621.57 471.787 617.957 469.443L614.148 474.131L610.779 475.742L600.672 489.805L591.883 500.352L588.953 506.65L580.457 516.172L569.178 524.668L568.152 529.648L562.146 531.846L561.268 535.947L554.383 539.316L552.039 545.029L547.205 546.787L540.32 559.092C537.586 559.092 535.975 561.582 535.486 566.562C534.705 566.758 534.021 566.855 533.436 566.855C532.654 565.098 531.043 562.51 528.602 559.092L529.188 555.137L527.137 552.5L529.188 549.863L527.283 547.666C526.795 547.08 526.014 544.98 524.939 541.367L520.838 537.559C520.057 537.266 518.982 536.143 517.615 534.189C516.346 532.139 515.369 530.625 514.686 529.648C514.002 528.672 513.123 526.279 512.049 522.471L508.826 518.662L503.113 507.236L497.107 500.352L495.057 496.104L489.344 489.805L483.338 480.43C479.92 475.254 477.234 472.666 475.281 472.666C473.914 472.666 472.596 472.91 471.326 473.398C470.154 473.887 469.471 474.131 469.275 474.131H468.836V477.793C468.836 484.434 467.957 489.414 466.199 492.734L459.9 504.453L461.365 512.07L459.314 517.344L453.309 537.559L450.965 544.15L449.939 548.545L446.131 558.213L441.297 566.562L441.883 573.154L436.756 585.459C436.756 587.217 437.684 588.535 439.539 589.414C435.633 594.199 433.045 596.592 431.775 596.592C431.287 596.592 430.506 595.811 429.432 594.248C428.357 592.783 427.82 590.977 427.82 588.828C427.82 588.438 428.211 587.217 428.992 585.166C429.773 583.018 430.457 580.479 431.043 577.549C431.629 574.619 432.459 572.52 433.533 571.25C434.705 569.883 435.291 569.15 435.291 569.053V561.729C435.291 557.529 437.293 554.453 441.297 552.5V547.666L443.055 540.781C442.859 540.391 442.762 539.805 442.762 539.023C442.762 538.047 443.299 536.045 444.373 533.018C445.74 531.357 446.424 529.551 446.424 527.598V521.006L449.061 516.172L454.48 498.154L453.016 490.098L455.652 488.047L456.678 484.385L456.971 471.494C457.947 466.123 458.436 462.314 458.436 460.068C458.436 457.92 457.117 454.209 454.48 448.936L456.971 443.955L455.652 441.758C456.531 441.367 456.971 440.488 456.971 439.121C459.9 439.121 461.756 438.438 462.537 437.07L465.32 437.363L468.836 440V442.637L472.205 444.834L473.084 451.719L475.867 454.062L477.039 458.311H478.504C478.113 459.092 477.918 459.775 477.918 460.361C477.918 462.119 479.529 463.145 482.752 463.438C484.021 464.023 485.389 465.098 486.854 466.66L487.439 470.615L490.809 474.131L492.859 481.162L506.336 495.518L508.826 503.574L513.367 507.236L517.469 518.955L527.723 537.266C529.871 540.879 532.459 544.053 535.486 546.787L536.072 542.832H541.492L544.861 535.361L551.16 530.967C552.234 529.404 554.041 527.402 556.58 524.961V522.471C558.729 521.006 560.926 519.688 563.172 518.516C565.516 517.246 566.688 516.465 566.688 516.172C566.688 515.977 566.59 515.879 566.395 515.879C566.395 514.512 566.98 512.9 568.152 511.045H571.229L573.865 507.236C574.549 508.213 575.086 508.701 575.477 508.701C575.672 508.701 575.77 508.408 575.77 507.822C575.77 507.627 575.525 505.82 575.037 502.402C579.432 496.445 583.338 493.467 586.756 493.467V489.805C586.756 487.754 588.465 486.24 591.883 485.264L593.641 485.85L594.373 484.092L600.672 474.131L601.258 472.08H603.309C606.238 468.955 608.436 465.244 609.9 460.947C611.17 459.971 612.684 459.482 614.441 459.482C615.125 459.482 615.613 459.775 615.906 460.361L617.957 455.967L616.785 446.885L615.027 442.637C617.176 439.512 618.592 436.338 619.275 433.115C621.424 433.408 622.986 433.799 623.963 434.287C624.451 434.971 625.77 435.459 627.918 435.752L628.504 440.586C631.824 443.418 633.533 444.98 633.631 445.273C633.826 445.566 633.924 446.201 633.924 447.178L633.631 449.668V457.725L635.389 460.361L633.631 461.973L635.389 462.559L634.803 465.781L635.975 467.246L636.854 473.545L638.465 474.863L635.389 478.965L636.854 479.551L635.975 485.85L638.172 491.27L637.439 498.154L640.223 508.994C640.711 511.143 641.199 514.121 641.688 517.93C640.516 520.371 639.344 522.178 638.172 523.35L639.93 527.012C640.711 527.5 641.102 527.988 641.102 528.477C641.102 528.965 640.711 529.941 639.93 531.406C639.246 532.773 638.758 533.994 638.465 535.068L640.809 537.266L639.93 553.672L642.859 563.926V575.938L645.057 578.281C646.229 581.211 647.205 583.213 647.986 584.287C648.768 585.361 650.281 587.119 652.527 589.561C654.871 591.904 656.141 593.662 656.336 594.834ZM835.047 484.092L833.289 487.754C832.703 489.121 831.824 490.391 830.652 491.562L826.111 496.104V498.154C823.865 498.643 822.107 499.717 820.838 501.377C819.666 503.037 818.592 503.867 817.615 503.867C815.857 507.09 811.561 509.482 804.725 511.045C802.283 514.463 798.719 516.172 794.031 516.172H792.42V517.93H786.414L782.898 520.713L779.529 521.006C779.529 522.568 778.846 523.35 777.479 523.35L774.695 525.547H767.811L763.709 529.355L751.404 531.846L749.793 533.018L742.908 532.432C742.713 533.115 741.834 534.824 740.271 537.559C739.393 536.875 736.512 536.338 731.629 535.947L728.846 537.559L724.598 539.023C722.547 540.391 720.35 541.367 718.006 541.953L716.248 547.666L719.324 553.379L717.713 560.557L719.91 568.76L718.006 569.932L720.496 573.447V579.453L721.668 582.529V587.949L728.553 587.363C729.529 588.242 730.018 589.316 730.018 590.586C730.018 593.613 727.918 595.127 723.719 595.127H721.961L717.127 596.885L713.025 589.414L707.605 577.695V565.391L704.529 559.385L706.727 557.041L705.408 551.035L705.994 546.787L703.943 544.15L691.639 541.953L688.416 537.266L703.357 535.947L701.893 535.068C702.283 534.678 702.869 534.482 703.65 534.482C704.725 534.482 705.408 534.678 705.701 535.068V528.184L707.605 524.668L708.484 506.65L710.242 504.453L709.656 490.684L710.828 483.213L711.414 466.66L713.318 461.973L715.662 460.361L715.076 455.967C715.076 453.916 716.248 452.891 718.592 452.891C725.428 452.891 728.846 455.186 728.846 459.775C728.846 461.045 728.016 463.291 726.355 466.514C724.793 469.639 724.012 471.982 724.012 473.545C724.012 475.303 725.135 478.037 727.381 481.748L724.598 484.385L724.305 492.441L720.496 496.104L721.668 502.402L719.324 509.287L720.496 515.879L719.324 521.006L719.91 524.961L717.713 528.184C718.006 531.504 719.422 533.408 721.961 533.896L729.432 529.355H735.73C738.562 526.621 741.98 525.254 745.984 525.254L748.035 523.35C749.012 523.74 750.428 523.936 752.283 523.936C756.287 523.936 760.291 522.275 764.295 518.955L769.129 518.662L772.938 515.293H776.893L777.771 513.828L793.592 509.287C796.424 508.994 797.84 508.311 797.84 507.236C798.621 506.455 799.109 505.527 799.305 504.453C800.281 504.648 801.404 504.746 802.674 504.746C805.408 504.746 807.117 502.988 807.801 499.473C810.926 499.082 812.635 498.447 812.928 497.568C813.221 496.689 814.002 496.006 815.271 495.518L817.029 496.982L818.494 492.441L820.691 490.684L821.863 484.092C820.203 479.6 818.006 475.596 815.271 472.08L812.195 471.494L806.922 466.66L795.789 461.973C788.66 456.602 781.043 453.574 772.938 452.891V454.941L767.811 451.426L760.926 451.719L756.824 448.936H751.99L747.742 446.592H743.494C741.443 446.592 739.783 445.811 738.514 444.248L726.795 442.637C724.646 443.32 721.619 444.443 717.713 446.006L710.828 441.758L706.727 444.248L703.357 442.051L697.059 443.955V444.834H694.422L688.416 448.057L684.314 448.643C683.045 448.838 681.092 449.766 678.455 451.426C675.818 448.105 674.207 444.492 673.621 440.586L676.697 436.338V434.287C677.186 433.408 678.943 432.871 681.971 432.676C685.096 432.383 687.83 431.602 690.174 430.332C692.42 430.82 693.836 431.064 694.422 431.064C695.398 431.064 696.277 430.625 697.059 429.746L699.695 431.064C701.355 430.576 702.381 430.332 702.771 430.332C703.943 430.332 704.822 430.967 705.408 432.236H719.91L728.553 432.529L738.514 434.287C739.002 434.971 739.832 435.557 741.004 436.045C742.273 436.436 742.908 436.875 742.908 437.363L745.105 435.166H746.277C748.426 435.166 749.5 435.557 749.5 436.338C749.5 436.826 749.402 437.168 749.207 437.363H753.455C758.826 438.926 763.318 439.805 766.932 440L767.811 441.758H776.014L781.434 445.42C782.02 445.811 784.119 446.201 787.732 446.592L789.197 448.936H790.662C795.838 448.936 799.451 450.938 801.502 454.941L805.311 452.891V456.553C807.166 457.041 809.705 458.506 812.928 460.947H816.443L819.227 465.195L828.748 471.494V474.863L835.047 484.092ZM1019.47 563.926H1022.25C1024.6 563.926 1025.77 564.512 1025.77 565.684C1025.77 567.734 1023.87 568.76 1020.06 568.76C1019.86 568.76 1019.23 569.15 1018.15 569.932C1017.08 570.713 1015.81 571.201 1014.34 571.396L1003.65 572.861H996.766L993.836 574.766C992.762 575.547 991.59 575.986 990.32 576.084L985.34 576.523L982.85 578.867L968.787 579.453L960.73 583.408C956.531 583.701 953.846 584.775 952.674 586.631C950.135 586.631 947.498 586.143 944.764 585.166L938.465 587.363L931.287 587.656L924.695 590H908.875L898.914 587.363L892.615 587.949L890.271 585.752L884.559 585.166L875.477 575.938C871.57 571.738 868.885 565.732 867.42 557.92C866.834 554.893 865.613 551.182 863.758 546.787L866.248 536.533L865.076 526.133L867.127 524.668L867.42 510.166L869.031 505.918C869.52 504.551 870.057 501.279 870.643 496.104L872.84 494.639L870.936 491.27V474.131C873.279 470.225 874.402 467.441 874.305 465.781L874.012 455.527L878.846 449.668L874.305 446.592L876.062 441.172L879.432 439.414L877.674 434.58L881.482 433.115L882.361 430.332L884.559 429.746L887.781 430.332L891.443 438.828C888.221 441.367 886.609 443.369 886.609 444.834C886.609 445.029 886.512 445.225 886.316 445.42C886.316 445.811 886.854 446.201 887.928 446.592C889.002 446.982 889.637 447.471 889.832 448.057L886.609 457.725V468.857L883.533 478.672L882.654 488.34L877.967 509.287L879.432 511.338L878.26 514.121C877.869 515.098 877.332 517.49 876.648 521.299C876.062 525.01 875.77 527.109 875.77 527.598L876.648 536.533L875.477 539.902L877.967 553.379L877.674 554.551L882.361 565.391V568.76L897.449 578.281L909.168 579.453V580.332L920.154 579.746L931.58 577.695H940.076V578.867L943.299 575.938L959.266 575.645L963.074 573.154L974.207 572.568L979.334 571.104L998.23 569.932L1006.29 567.441C1007.85 567.832 1009.75 568.027 1012 568.027C1014.25 568.027 1015.37 567.344 1015.37 565.977V565.391C1017.13 565.391 1018.49 564.902 1019.47 563.926ZM1216.93 431.064L1214.59 433.115V437.949C1211.27 438.535 1208.92 439.756 1207.56 441.611C1206.19 443.467 1204.72 444.541 1203.16 444.834C1202.87 446.982 1201.99 448.057 1200.53 448.057L1193.05 454.648L1189.98 459.775H1187.34C1185.39 463.389 1183.78 465.684 1182.51 466.66C1179.29 468.027 1177.28 469.15 1176.5 470.029L1170.2 477.5L1165.66 480.869C1164.1 482.041 1161.9 483.115 1159.07 484.092L1156.14 489.805L1152.04 492.295C1150.77 493.076 1148.62 495.029 1145.59 498.154L1142.52 506.064L1132.12 518.955C1129.09 523.35 1126.79 527.451 1125.23 531.26L1126.99 534.482L1125.23 539.316L1126.7 545.029L1124.65 551.621L1125.82 559.385L1127.87 561.729C1125.53 565.049 1124.35 568.369 1124.35 571.689C1124.35 574.521 1123.91 576.719 1123.04 578.281C1123.82 583.75 1124.11 587.07 1123.91 588.242L1121.86 602.305L1122.16 609.189L1120.98 612.266L1123.04 622.959L1120.4 627.5L1122.16 633.213L1120.4 636.143C1122.84 640.244 1123.77 643.125 1123.18 644.785C1121.72 649.277 1120.98 651.816 1120.98 652.402L1122.74 660.459L1119.81 667.93L1123.04 672.764L1122.16 683.604C1121.86 687.119 1120.59 689.219 1118.35 689.902L1116.44 679.648L1114.1 670.713L1113.51 662.363L1111.32 661.045L1112.93 657.529L1111.32 652.402L1112.93 643.027L1110.73 633.213L1111.61 624.863L1111.32 622.959L1111.61 616.367L1110.44 602.305L1111.61 595.713L1110.73 587.949L1112.93 574.033L1110.14 569.053L1111.32 563.047C1111.32 558.262 1110.63 554.258 1109.27 551.035C1110.83 548.105 1111.61 545.518 1111.61 543.271C1111.61 541.709 1110.14 535.703 1107.21 525.254C1104.68 523.398 1102.58 520.957 1100.92 517.93C1099.45 517.734 1098.04 516.855 1096.67 515.293L1087.73 504.453L1083.19 501.816L1079.24 494.639L1067.81 483.213L1065.76 478.965L1060.05 471.787L1052.87 465.781V462.559L1049.35 459.922C1047.89 458.848 1046.86 457.725 1046.28 456.553L1043.64 451.719C1043.15 450.742 1041.54 449.717 1038.81 448.643C1032.95 445.518 1030.02 440.342 1030.02 433.115L1030.31 430.332H1033.09C1033.29 428.965 1034.17 428.281 1035.73 428.281C1037.49 428.281 1040.03 428.77 1043.35 429.746L1044.81 434.58L1050.53 437.07L1055.21 444.834L1061.95 449.668L1062.24 455.967C1062.24 457.529 1063.71 458.506 1066.64 458.896L1069.71 463.73L1074.11 467.246L1088.61 488.926L1088.03 491.27L1091.25 492.441L1095.5 498.154L1110.44 512.656C1111.51 513.535 1112.63 514.902 1113.81 516.758C1115.08 518.613 1115.96 519.541 1116.44 519.541C1116.54 519.541 1117.42 518.711 1119.08 517.051C1120.74 515.293 1122.89 512.021 1125.53 507.236C1126.11 503.623 1126.79 501.816 1127.58 501.816H1129.63C1130.51 501.816 1130.95 501.23 1130.95 500.059V499.033C1130.95 497.861 1132.31 496.201 1135.05 494.053L1134.75 493.027C1134.75 491.27 1136.95 489.414 1141.35 487.461L1144.13 483.213V482.627C1144.13 480.479 1146.42 479.258 1151.01 478.965C1152.58 478.184 1153.36 477.305 1153.36 476.328C1153.36 475.645 1153.26 475.156 1153.06 474.863C1156.19 474.277 1158.34 473.301 1159.51 471.934L1164.49 466.074C1166.44 462.266 1168.69 459.238 1171.23 456.992C1173.87 454.648 1175.43 453.477 1175.92 453.477H1176.5L1179.14 449.814C1179.92 448.643 1181.73 447.08 1184.56 445.127L1185.73 440.586C1186.32 440.977 1187.24 441.172 1188.51 441.172C1190.27 441.172 1191.15 439.658 1191.15 436.631V436.338C1191.15 435.557 1192.66 434.873 1195.69 434.287L1194.81 432.529L1198.33 431.064H1201.7L1203.46 425.938L1210.63 426.816L1212.83 425.938L1214.59 429.746L1216.93 431.064Z" fill="#00716A"/>
</g>
<defs>
<clipPath id="clip0">
<rect width="1472" height="974" fill="white"/>
</clipPath>
</defs>
</svg>
